#!OML:ASF E:\Mandelcareful walks\Project 1\Capture day 1\Session 1\Subject1.ASF
:FULLY-SPECIFIED
:DEGREES
697
root -17.05 15.2118 0.413599 548.589 80.5309 526.814
lowerback 31.1352 -0.68464 -5.76459
upperback 6.16197 -2.31582 -2.95667
thorax -9.97115 -0.643885 0.797502
lowerneck -34.8058 1.16134 -2.53415
upperneck 16.3606 4.92993 -7.58887
head 11.0657 1.05789 -1.51513
rclavicle 8.74653e-015 2.46493e-014
rhumerus -14.1604 1.83629 -85.2057
rradius 84.7266
rwrist -15.16
rhand -19.5032 -24.9536
rfingers 7.12502
rthumb 6.8194 -54.8237
lclavicle 8.74653e-015 2.46493e-014
lhumerus -2.8307 -4.29825 73.9939
lradius 84.4568
lwrist 21.9837
lhand -32.382 341.158
lfingers 7.12502
lthumb -5.61752 11.064
rfemur -51.6247 -20.3509 8.49804
rtibia 52.2643
rfoot -14.4903 -4.45673
rtoes -14.1266
lfemur -56.309 18.4753 -15.7291
ltibia 52.9734
lfoot -11.4325 0.251843
ltoes -10.0342
698
root -17.0359 15.2065 0.495743 546.825 80.6751 524.872
lowerback 31.5933 -0.828531 -5.41242
upperback 5.4465 -2.47844 -2.93571
thorax -10.2091 -0.713174 0.641608
lowerneck -34.5398 1.2867 -2.41089
upperneck 16.4024 5.00225 -7.51943
head 11.0407 1.10975 -1.49414
rclavicle 1.59028e-015 -1.51076e-014
rhumerus -13.935 1.95932 -85.4305
rradius 85.1653
rwrist -15.1856
rhand -20.0487 -24.3494
rfingers 7.12502
rthumb 6.29276 -54.236
lclavicle 1.59028e-015 -1.51076e-014
lhumerus -3.83535 -3.46076 74.6866
lradius 85.3485
lwrist 22.2148
lhand -32.4134 340.801
lfingers 7.12502
lthumb -5.6479 10.7055
rfemur -52.1656 -20.2574 8.58083
rtibia 52.7329
rfoot -14.7352 -4.37559
rtoes -13.7353
lfemur -56.1773 18.4931 -15.671
ltibia 52.5773
lfoot -11.2347 0.386727
ltoes -10.1423
699
root -17.0153 15.2087 0.580694 544.338 80.9311 522.278
lowerback 31.5671 -0.900132 -5.23376
upperback 5.51675 -2.50278 -2.95032
thorax -10.1305 -0.730991 0.539072
lowerneck -35.0421 1.34654 -2.51163
upperneck 16.5246 5.08464 -7.21123
head 11.1522 1.1648 -1.35089
rclavicle -2.8625e-014 -3.26007e-014
rhumerus -12.8824 2.10846 -85.5218
rradius 85.2224
rwrist -15.2275
rhand -20.8864 -24.1554
rfingers 7.12502
rthumb 5.48402 -54.0644
lclavicle -2.8625e-014 -3.26007e-014
lhumerus -4.04892 -2.65085 75.2011
lradius 85.7643
lwrist 22.3247
lhand -32.4103 340.403
lfingers 7.12502
lthumb -5.64484 10.3078
rfemur -52.5552 -20.0725 8.585
rtibia 53.1151
rfoot -15.0269 -4.27349
rtoes -13.3836
lfemur -55.8811 18.6511 -15.7122
ltibia 52.131
lfoot -11.0816 0.588885
ltoes -10.6135
700
root -16.9909 15.2173 0.666245 541.593 81.108 519.469
lowerback 31.1169 -0.835204 -5.23917
upperback 6.10276 -2.34795 -2.84658
thorax -10.0515 -0.676196 0.634444
lowerneck -34.7031 1.34695 -2.46804
upperneck 16.0346 4.9867 -7.14146
head 10.9065 1.16323 -1.34495
rclavicle -2.46493e-014 -7.63333e-014
rhumerus -11.8534 2.18231 -85.3491
rradius 85.176
rwrist -15.2344
rhand -21.5458 -23.5671
rfingers 7.12502
rthumb 4.84737 -53.4916
lclavicle -2.46493e-014 -7.63333e-014
lhumerus -3.84896 -1.83326 76.1955
lradius 85.5057
lwrist 21.8341
lhand -32.5347 339.978
lfingers 7.12502
lthumb -5.76502 9.87923
rfemur -52.8073 -19.9681 8.55302
rtibia 53.4315
rfoot -15.3404 -4.11282
rtoes -12.8623
lfemur -55.4939 18.7864 -15.7614
ltibia 51.6442
lfoot -10.9577 0.718221
ltoes -11.1526
701
root -16.9721 15.227 0.751129 539.921 81.1518 517.736
lowerback 31.283 -0.992832 -4.8453
upperback 5.93159 -2.46564 -2.87739
thorax -10.3487 -0.739179 0.420734
lowerneck -34.368 1.39639 -2.4046
upperneck 15.8643 4.89739 -6.81926
head 10.7727 1.18227 -1.24997
rclavicle 0 -1.90833e-014
rhumerus -11.4938 2.37296 -85.536
rradius 85.2142
rwrist -15.1964
rhand -21.6333 -23.2676
rfingers 7.12502
rthumb 4.76289 -53.194
lclavicle 0 -1.90833e-014
lhumerus -4.38058 -1.95372 76.147
lradius 85.3596
lwrist 21.8593
lhand -32.8998 339.882
lfingers 7.12502
lthumb -6.11751 9.77407
rfemur -53.051 -19.9866 8.70406
rtibia 53.7109
rfoot -15.5412 -3.90142
rtoes -12.2751
lfemur -55.1589 18.8717 -15.6339
ltibia 51.1544
lfoot -10.7013 0.720821
ltoes -11.5175
702
root -16.9545 15.2331 0.831217 538.878 81.3197 516.603
lowerback 31.278 -1.09225 -4.48563
upperback 5.90548 -2.47831 -2.80301
thorax -10.3912 -0.757496 0.304216
lowerneck -34.4767 1.41505 -2.39788
upperneck 15.763 4.84182 -6.54224
head 10.7372 1.19608 -1.15866
rclavicle 3.18055e-015 -3.97569e-015
rhumerus -10.6755 2.6147 -85.4192
rradius 84.8629
rwrist -15.2403
rhand -21.8676 -23.4023
rfingers 7.12502
rthumb 4.53663 -53.3337
lclavicle 3.18055e-015 -3.97569e-015
lhumerus -4.46634 -2.05457 76.0985
lradius 84.8066
lwrist 21.8904
lhand -33.0773 339.602
lfingers 7.12502
lthumb -6.28885 9.4883
rfemur -53.4269 -19.9394 9.01126
rtibia 53.9755
rfoot -15.6618 -3.67948
rtoes -11.8517
lfemur -54.8425 18.9842 -15.3542
ltibia 50.6989
lfoot -10.3609 0.827068
ltoes -11.6314
703
root -16.931 15.2416 0.899222 536.893 81.6267 514.548
lowerback 31.0482 -1.13369 -4.31931
upperback 5.93192 -2.45903 -2.70184
thorax -10.2526 -0.759801 0.314236
lowerneck -34.3169 1.44095 -2.48376
upperneck 15.4839 4.81481 -6.26774
head 10.5925 1.22976 -1.04722
rclavicle 2.94201e-014 4.25399e-014
rhumerus -9.6632 3.04504 -85.1318
rradius 83.8959
rwrist -15.2148
rhand -22.4228 -22.6763
rfingers 7.12502
rthumb 4.00049 -52.6185
lclavicle 2.94201e-014 4.25399e-014
lhumerus -4.37981 -1.87476 76.1334
lradius 83.7786
lwrist 21.7953
lhand -33.0485 338.894
lfingers 7.12502
lthumb -6.26101 8.78134
rfemur -53.7946 -19.9213 9.21295
rtibia 54.2316
rfoot -15.704 -3.30042
rtoes -11.241
lfemur -54.4118 19.0729 -15.1785
ltibia 50.2842
lfoot -10.2547 1.08689
ltoes -11.4359
704
root -16.905 15.2515 0.962032 534.504 81.825 512.12
lowerback 30.7169 -1.17458 -4.13193
upperback 6.04119 -2.42509 -2.69303
thorax -9.9745 -0.756966 0.199113
lowerneck -34.157 1.46641 -2.31912
upperneck 15.084 4.67825 -6.05033
head 10.408 1.22627 -1.01628
rclavicle -2.34566e-014 1.19271e-015
rhumerus -8.49142 3.19308 -84.9679
rradius 82.5978
rwrist -15.0716
rhand -22.7645 -22.1742
rfingers 7.12502
rthumb 3.67054 -52.1223
lclavicle -2.34566e-014 1.19271e-015
lhumerus -3.74753 -1.64096 76.1981
lradius 82.0259
lwrist 21.4017
lhand -32.6504 338.27
lfingers 7.12502
lthumb -5.87668 8.16892
rfemur -54.0491 -20.0283 9.32507
rtibia 54.4882
rfoot -15.7614 -2.85339
rtoes -10.3385
lfemur -54.0148 19.0901 -15.1111
ltibia 49.9637
lfoot -10.2625 1.35434
ltoes -11.3317
705
root -16.8813 15.2607 1.03036 533.097 82.0383 510.677
lowerback 30.4001 -1.2037 -4.10248
upperback 6.13375 -2.4106 -2.49139
thorax -9.70497 -0.757867 0.401481
lowerneck -34.1534 1.52139 -2.35446
upperneck 14.7223 4.70844 -5.89861
head 10.2661 1.27413 -0.948544
rclavicle -5.08889e-014 -5.28767e-014
rhumerus -7.3156 3.62088 -84.6027
rradius 81.4315
rwrist -15.0273
rhand -22.8737 -23.5962
rfingers 7.12502
rthumb 3.56504 -53.5461
lclavicle -5.08889e-014 -5.28767e-014
lhumerus -3.11682 -1.09375 76.4224
lradius 80.1344
lwrist 21.1573
lhand -32.3716 338.28
lfingers 7.12502
lthumb -5.60754 8.18573
rfemur -54.2877 -19.9651 9.58938
rtibia 54.7265
rfoot -16.0035 -2.60467
rtoes -9.94543
lfemur -53.7122 19.2319 -14.9076
ltibia 49.6685
lfoot -10.0363 1.58677
ltoes -11.6937
706
root -16.8674 15.2587 1.09036 532.153 82.5736 509.396
lowerback 29.996 -1.09582 -3.96579
upperback 5.98246 -2.23775 -2.38743
thorax -9.6888 -0.69364 0.373377
lowerneck -34.2163 1.5203 -2.28454
upperneck 14.6606 4.61826 -5.68562
head 10.2429 1.26581 -0.897929
rclavicle 1.43125e-014 4.17448e-014
rhumerus -6.7183 3.79454 -84.3332
rradius 80.6524
rwrist -14.9331
rhand -23.0751 -25.3427
rfingers 7.12502
rthumb 3.37053 -55.2958
lclavicle 1.43125e-014 4.17448e-014
lhumerus -3.12686 -1.14761 76.3004
lradius 79.1231
lwrist 21.8546
lhand -32.1659 338.956
lfingers 7.12502
lthumb -5.40892 8.86658
rfemur -55.053 -19.6229 10.0642
rtibia 54.9617
rfoot -16.111 -2.43259
rtoes -9.81573
lfemur -53.8277 19.6322 -14.6938
ltibia 49.4384
lfoot -9.59285 1.89683
ltoes -12.3506
707
root -16.8449 15.2627 1.13976 531.577 82.524 508.874
lowerback 29.8754 -1.24615 -3.72879
upperback 6.04623 -2.32688 -2.19772
thorax -9.55603 -0.743117 0.482474
lowerneck -34.1131 1.39896 -2.47428
upperneck 14.2961 4.43391 -5.34668
head 10.0713 1.23176 -0.776997
rclavicle -2.18663e-014 -4.77083e-015
rhumerus -5.97489 4.12796 -83.9408
rradius 79.9206
rwrist -14.9928
rhand -23.3393 -26.2065
rfingers 7.12502
rthumb 3.11542 -56.1635
lclavicle -2.18663e-014 -4.77083e-015
lhumerus -3.28782 -1.18995 76.2034
lradius 78.865
lwrist 23.2036
lhand -31.9171 339.945
lfingers 7.12502
lthumb -5.16868 9.86225
rfemur -55.0626 -19.7102 10.2383
rtibia 55.1675
rfoot -16.2652 -2.33106
rtoes -9.36093
lfemur -53.5147 19.42 -14.4102
ltibia 49.2059
lfoot -9.32467 2.15634
ltoes -13.1571
708
root -16.8252 15.2635 1.18291 530.087 82.6053 507.444
lowerback 29.611 -1.3318 -3.53677
upperback 6.26755 -2.33279 -2.11722
thorax -9.17792 -0.754448 0.458947
lowerneck -34.4667 1.33051 -2.6169
upperneck 13.9589 4.35717 -5.10859
head 9.98657 1.23043 -0.681251
rclavicle 1.82882e-014 3.81667e-014
rhumerus -4.97747 4.37288 -83.4962
rradius 79.1955
rwrist -15.5058
rhand -23.4495 -27.8106
rfingers 7.12502
rthumb 3.00901 -57.7691
lclavicle 1.82882e-014 3.81667e-014
lhumerus -3.08789 -1.30392 76.1155
lradius 78.8153
lwrist 24.6697
lhand -31.9716 341.03
lfingers 7.12502
lthumb -5.22132 10.9454
rfemur -55.1177 -19.681 10.2956
rtibia 55.3768
rfoot -16.4196 -2.19323
rtoes -9.22684
lfemur -53.1813 19.3307 -14.2503
ltibia 49.0148
lfoot -9.30474 2.44566
ltoes -14.1087
709
root -16.812 15.2581 1.21892 528.767 83.0053 505.941
lowerback 29.5777 -1.31342 -3.52388
upperback 6.03282 -2.32914 -1.9751
thorax -9.42461 -0.757497 0.612936
lowerneck -34.31 1.42762 -2.57922
upperneck 13.7407 4.44662 -5.09865
head 9.88421 1.28631 -0.667631
rclavicle 3.26007e-014 5.32743e-014
rhumerus -4.89951 5.02513 -82.9814
rradius 79.0698
rwrist -16.3879
rhand -22.5335 -26.6701
rfingers 7.12502
rthumb 3.89358 -56.6143
lclavicle 3.26007e-014 5.32743e-014
lhumerus -3.60838 -1.22538 76.0257
lradius 79.0277
lwrist 25.9415
lhand -32.0881 341.604
lfingers 7.12502
lthumb -5.33376 11.5173
rfemur -55.5937 -19.4221 10.5412
rtibia 55.5768
rfoot -16.5196 -2.01908
rtoes -9.539
lfemur -53.1269 19.5738 -14.1004
ltibia 48.8442
lfoot -9.30232 2.70102
ltoes -14.5694
